<svg id="Layer_1" data-name="Layer 1" xmlns="http://www.w3.org/2000/svg" viewBox="0 0 122.88 110.89"><defs><style>.cls-1{fill-rule:evenodd;}</style></defs><title>conversation</title><path class="cls-1" d="M98.25,97.39c-1.58-3.16-2.11-4.38-4.44-6.89,4.38,1.69,8.1,1.9,11.41,4,2.11,1.32,5.24,2.32,6.09,3.91,2.1,3.94,1.79,8.31,2.91,12.5h-34v-3.16h0v-.9l0-.24v-.49l0-.25v-.35l0-.36v-.23h0v-.68h0l0-.32v-.32l-.05-.43v-.21L83,105.45l10.74-8.17,4.56.11ZM29.36,0H64a8.3,8.3,0,0,1,3.22.65A8.44,8.44,0,0,1,70,2.48h0a8.56,8.56,0,0,1,1.83,2.73,8.38,8.38,0,0,1,.65,3.22V27.2a8.3,8.3,0,0,1-.65,3.22A8.56,8.56,0,0,1,70,33.15h0A8.61,8.61,0,0,1,67.24,35a8.48,8.48,0,0,1-3.22.64H58L47.31,43.5,43,35.63H29.36A8.48,8.48,0,0,1,26.14,35a8.61,8.61,0,0,1-2.74-1.83h0a8.56,8.56,0,0,1-1.83-2.73,8.3,8.3,0,0,1-.65-3.22V8.43A8.45,8.45,0,0,1,23.4,2.48,8.44,8.44,0,0,1,26.14.65,8.3,8.3,0,0,1,29.36,0ZM58.05,14.43a3.17,3.17,0,1,1-3.17,3.17,3.17,3.17,0,0,1,3.17-3.17Zm-22.72,0a3.17,3.17,0,1,1-3.17,3.17,3.17,3.17,0,0,1,3.17-3.17Zm11.36,0a3.17,3.17,0,1,1-3.17,3.17,3.17,3.17,0,0,1,3.17-3.17Zm16.22-11H29.36a5,5,0,0,0-5,5V27.2a5,5,0,0,0,5,5H44.53a1.28,1.28,0,0,1,1.19,1.36l2.69,4.88,8-5.88a1.27,1.27,0,0,1,.9-.37H64a5,5,0,0,0,5-5V8.43a5,5,0,0,0-5-5ZM0,110.89C1.5,91.43,5.17,98.72,21.77,88.33c4.58,11.89,26.58,12.69,31.41,0,14.33,9.16,21.48,2.24,21.39,22.56ZM26.94,87.4a7.12,7.12,0,0,1,.73-2.57,10.44,10.44,0,0,1-4.11-7.62h-.22a3.15,3.15,0,0,1-1.49-.39,4.09,4.09,0,0,1-1.64-2c-.75-1.74-1.35-6.3.55-7.6L20.41,67l0-.51c-.08-.91-.1-2-.11-3.19C20.19,59,20.1,56.08,16.65,55l-1.48-.45,1-1.21a56.65,56.65,0,0,1,8.64-8.77,22,22,0,0,1,10-4.85,12,12,0,0,1,9.72,2.72,17.47,17.47,0,0,1,2.61,2.62c7.45.72,11.36,6.43,11,13.2a14,14,0,0,1-4,9.4,3,3,0,0,1,1.26.32c1.43.77,1.48,2.45,1.1,3.85-.37,1.17-.85,2.53-1.29,3.67-.55,1.54-1.34,1.83-2.88,1.66-.08,3.81-1.84,5.68-4.21,7.92L48.6,87c-1.49,7.26-17.37,8.05-21.66.41Zm89.8-72.47H82.42a5.05,5.05,0,0,0-5,5V42.14a5.05,5.05,0,0,0,5,5h5a1.27,1.27,0,0,1,1.19,1.35l.64,4.58,10.07-5.57a1.27,1.27,0,0,1,.9-.37h17.67a5.05,5.05,0,0,0,5-5V20a5.05,5.05,0,0,0-5-5ZM100.14,27a2.95,2.95,0,1,1-3,3,2.95,2.95,0,0,1,3-3Zm10.69,0a2.95,2.95,0,1,1-3,3,2.95,2.95,0,0,1,3-3ZM89.44,27a2.95,2.95,0,1,1-3,3,2.95,2.95,0,0,1,3-3Zm-17,63.57.16-.06-.09.09-.05,0Zm3.32-4.48v2.75l-1.35,2.89.08.06.16.12.08.06,0,0,.12.1.08.07.08.06h0l.12.1.11.09.08.07.07.07.08.07.07.06.08.07.07.07.07.07,0,0,.1.1,0,0,.07.07.07.07.07.08.06.08.07.07h0l.06.07.07.08.06.08h0l.11.14h0l.06.08.06.08.07.09.06.08.06.09.13.17.06.09v0l.11.16.06.09,0,.09.1.17,0,0,0,.1h0l.1.18h0l0,.1,0,.1.06.1,0,.1,0,.11L78,96l0,0,0,.1v0l.09.19,0,.11.05.11.1.23,0,.12.09.23,4.71,3.65,9.58-7.5-3-4.74V86a54.09,54.09,0,0,0,8.52-1,11.62,11.62,0,0,0,5.4-2.6,7.81,7.81,0,0,1-4-4.78c-1.71-5-.09-8.67-.85-14.12-1-7.31-5.92-9.9-10.7-8.81-5.23-5-16.75-2.5-19.68,6C67,65,67.87,67.17,67.72,71.51c-.21,5.84-1.74,9.19-5,10.43a10.49,10.49,0,0,0,4.93,3.11,36.57,36.57,0,0,0,8.15,1Z"/></svg>